HIERARCHY
ROOT Hips
{
	OFFSET -0.001795 -0.223333 0.028219
	CHANNELS 6 Xposition Yposition Zposition Zrotation Yrotation Xrotation 
	JOINT LeftUpLeg
	{
		OFFSET 0.069520 -0.091406 -0.006815
		CHANNELS 3 Zrotation Yrotation Xrotation
		JOINT LeftLeg
		{
			OFFSET 0.034277 -0.375199 -0.004496
			CHANNELS 3 Zrotation Yrotation Xrotation
			JOINT LeftFoot
			{
				OFFSET -0.013596 -0.397961 -0.043693
				CHANNELS 3 Zrotation Yrotation Xrotation
				JOINT LeftToe
				{
					OFFSET 0.026358 -0.055791 0.119288
					CHANNELS 3 Zrotation Yrotation Xrotation
					End Site
					{
						OFFSET 0.000000 0.000000 0.000000
					}
				}
			}
		}
	}
	JOINT RightUpLeg
	{
		OFFSET -0.067670 -0.090522 -0.004320
		CHANNELS 3 Zrotation Yrotation Xrotation
		JOINT RightLeg
		{
			OFFSET -0.038290 -0.382569 -0.008850
			CHANNELS 3 Zrotation Yrotation Xrotation
			JOINT RightFoot
			{
				OFFSET 0.015774 -0.398415 -0.042312
				CHANNELS 3 Zrotation Yrotation Xrotation
				JOINT RightToe
				{
					OFFSET -0.025372 -0.048144 0.123348
					CHANNELS 3 Zrotation Yrotation Xrotation
					End Site
					{
						OFFSET 0.000000 0.000000 0.000000
					}
				}
			}
		}
	}
	JOINT Spine
	{
		OFFSET -0.002533 0.108963 -0.026696
		CHANNELS 3 Zrotation Yrotation Xrotation
		JOINT Spine1
		{
			OFFSET 0.005487 0.135180 0.001092
			CHANNELS 3 Zrotation Yrotation Xrotation
			JOINT Spine2
			{
				OFFSET 0.001457 0.052922 0.025425
				CHANNELS 3 Zrotation Yrotation Xrotation
				JOINT Neck
				{
					OFFSET -0.002778 0.213870 -0.042857
					CHANNELS 3 Zrotation Yrotation Xrotation
					JOINT Head
					{
						OFFSET 0.005152 0.064970 0.051349
						CHANNELS 3 Zrotation Yrotation Xrotation
						End Site
						{
							OFFSET 0.000000 0.000000 0.000000
						}
					}
				}
				JOINT LeftShoulder
				{
					OFFSET 0.078845 0.121749 -0.034090
					CHANNELS 3 Zrotation Yrotation Xrotation
					JOINT LeftArm
					{
						OFFSET 0.090977 0.030469 -0.008868
						CHANNELS 3 Zrotation Yrotation Xrotation
						JOINT LeftForeArm
						{
							OFFSET 0.259612 -0.012772 -0.027456
							CHANNELS 3 Zrotation Yrotation Xrotation
							JOINT LeftHand
							{
								OFFSET 0.249234 0.008986 -0.001171
								CHANNELS 3 Zrotation Yrotation Xrotation
								End Site
								{
									OFFSET 0.000000 0.000000 0.000000
								}
							}
						}
					}
				}
				JOINT RightShoulder
				{
					OFFSET -0.081759 0.118833 -0.038615
					CHANNELS 3 Zrotation Yrotation Xrotation
					JOINT RightArm
					{
						OFFSET -0.096012 0.032551 -0.009143
						CHANNELS 3 Zrotation Yrotation Xrotation
						JOINT RightForeArm
						{
							OFFSET -0.253742 -0.013329 -0.021401
							CHANNELS 3 Zrotation Yrotation Xrotation
							JOINT RightHand
							{
								OFFSET -0.255298 0.007772 -0.005559
								CHANNELS 3 Zrotation Yrotation Xrotation
								End Site
								{
									OFFSET 0.000000 0.000000 0.000000
								}
							}
						}
					}
				}
			}
		}
	}
}
MOTION
Frames: 17
Frame Time: 0.050000
0.132200 0.696683 0.285614 -1.579510 10.840430 0.873737 33.737827 2.025308 -23.564674 -8.844593 0.470541 69.277261 2.986764 5.507116 -2.377754 0.000000 0.000000 0.000000 -17.428132 -7.387908 -58.996209 4.562144 -3.340924 65.346938 -2.402233 -5.652100 -0.577658 0.000000 0.000000 0.000000 -9.069149 -2.024102 75.570557 15.712766 -1.927913 -30.359025 8.585127 18.694101 31.605821 -7.426245 8.096333 -40.338589 0.000000 0.000000 0.000000 -24.517258 -4.649090 -5.697010 -16.454826 -3.610394 -1.313897 21.802762 -62.666805 -14.059570 0.000000 0.000000 0.000000 4.204710 18.676280 8.566641 26.575093 23.840068 0.630396 -52.488156 33.161500 -10.712704 0.000000 0.000000 0.000000 
0.107043 0.708880 0.326642 -1.000794 12.422994 2.223742 36.149798 2.152942 -25.150238 -7.443504 -0.944170 69.413297 -1.796511 0.907444 9.397685 0.000000 0.000000 0.000000 -17.028105 -7.239396 -56.433172 5.671022 -4.924196 65.461180 -4.146594 -8.133521 -7.342341 0.000000 0.000000 0.000000 -8.606969 -2.938681 73.592911 17.406047 -2.164247 -30.424630 8.215189 20.320690 30.983684 -9.669732 9.542045 -38.248277 0.000000 0.000000 0.000000 -27.412067 -4.895049 -7.241429 -12.738024 -1.689035 -1.016857 8.837986 -64.450429 -5.874609 0.000000 0.000000 0.000000 7.041210 20.062720 10.573622 20.144019 23.811294 -0.245205 -51.609028 31.118507 -10.027767 0.000000 0.000000 0.000000 
0.087416 0.727179 0.364291 -0.211645 12.192221 2.050729 36.700116 2.754530 -27.529142 -9.421653 0.908526 71.704961 -0.869619 3.946993 13.324628 0.000000 0.000000 0.000000 -16.175115 -5.906124 -52.426793 6.088248 -5.389548 64.235625 -4.950312 -9.409227 -11.699359 0.000000 0.000000 0.000000 -9.761887 -1.915314 73.843619 17.617865 -2.140806 -30.792241 9.806783 23.322737 30.147098 -7.096498 9.323956 -33.541605 0.000000 0.000000 0.000000 -28.183097 -6.023019 -8.044009 -10.136285 0.070041 -0.731888 -3.763047 -68.056409 2.340590 0.000000 0.000000 0.000000 6.973237 21.205596 11.401279 16.970796 22.307448 -0.549612 -47.191527 29.984092 -8.704209 0.000000 0.000000 0.000000 
0.075341 0.744353 0.396012 0.607233 11.983849 1.387601 36.233039 3.521065 -31.652987 -13.907521 5.103056 73.481297 1.933581 7.570676 10.292746 0.000000 0.000000 0.000000 -14.899732 -4.628885 -48.850605 4.860650 -4.543245 63.676081 -5.170130 -9.854543 -13.112211 0.000000 0.000000 0.000000 -10.662268 -1.109859 73.753523 16.758967 -1.793947 -31.989681 11.750796 23.574261 31.792007 -6.655070 9.293360 -34.505491 0.000000 0.000000 0.000000 -26.225056 -4.773088 -8.228401 -9.557744 -1.159112 -0.669899 -9.404132 -70.430995 5.846940 0.000000 0.000000 0.000000 5.179874 23.327199 11.490058 15.726253 22.503887 -0.465359 -42.970858 27.576903 -7.088874 0.000000 0.000000 0.000000 
0.070919 0.758889 0.421964 0.976766 13.003900 0.333026 34.176689 3.551361 -35.748026 -16.436395 6.673512 70.958002 3.039431 5.577009 -2.738896 0.000000 0.000000 0.000000 -14.427421 -4.130124 -44.885537 4.039637 -4.381757 62.957529 -5.283998 -10.459752 -12.861466 0.000000 0.000000 0.000000 -10.993467 -1.391528 74.780703 17.042382 -1.690563 -32.868085 12.926052 25.155249 33.207307 -6.046282 9.635936 -33.372427 0.000000 0.000000 0.000000 -25.700036 -4.935718 -8.517969 -8.990301 -3.534739 -0.536353 -17.992437 -72.278391 12.013530 0.000000 0.000000 0.000000 2.929594 25.664628 11.444832 14.998320 22.598146 -0.254268 -38.610231 23.523663 -5.081723 0.000000 0.000000 0.000000 
0.074420 0.770910 0.443214 1.088029 12.252021 0.152852 33.281972 4.041942 -39.142169 -19.479817 8.398282 61.416460 3.382711 3.510696 -9.309361 0.000000 0.000000 0.000000 -13.634960 -3.267300 -42.517523 3.114771 -3.445059 61.707229 -5.183328 -10.364652 -12.272000 0.000000 0.000000 0.000000 -12.102180 -0.188866 75.046944 16.559956 -1.636304 -32.902376 15.567427 27.332003 33.840695 -5.958710 9.822897 -33.697258 0.000000 0.000000 0.000000 -23.832346 -5.651692 -8.207211 -10.996436 -5.150287 -0.503047 -23.657232 -73.370571 15.783533 0.000000 0.000000 0.000000 -0.716125 26.271891 10.096139 18.653146 22.796002 0.483304 -36.377278 21.075270 -3.745280 0.000000 0.000000 0.000000 
0.086116 0.781330 0.461895 1.069130 11.044043 0.508926 30.906921 4.100535 -42.127663 -19.195783 7.387370 51.492357 1.566531 2.574929 -1.877092 0.000000 0.000000 0.000000 -13.366725 -2.753438 -41.485515 2.336618 -2.480695 60.995351 -4.732163 -9.578087 -9.690037 0.000000 0.000000 0.000000 -11.514748 -0.052274 74.240843 15.168656 -1.381876 -33.247196 17.130245 26.882373 35.049469 -8.146997 10.303371 -37.673937 0.000000 0.000000 0.000000 -22.288486 -5.756835 -7.447532 -16.310675 -6.653611 -0.674113 -26.515946 -72.642236 16.973338 0.000000 0.000000 0.000000 -3.503210 26.713571 8.864301 21.243987 23.439518 1.153326 -34.845583 19.731878 -3.131002 0.000000 0.000000 0.000000 
0.106655 0.783381 0.480815 0.912231 9.114212 -0.337433 27.031570 3.430993 -41.362570 -14.726787 4.735120 47.313789 -0.471502 0.378315 2.675315 0.000000 0.000000 0.000000 -12.642749 -2.003167 -40.823312 0.079834 -0.213271 62.640385 -3.932319 -8.031248 -6.448058 0.000000 0.000000 0.000000 -12.075913 1.302421 74.646241 15.774613 -1.552765 -33.101827 17.425580 27.186340 35.355926 -6.384356 9.607408 -38.672084 0.000000 0.000000 0.000000 -22.936552 -7.577524 -6.690193 -20.168177 -5.895152 -0.874111 -31.309824 -71.549611 20.033037 0.000000 0.000000 0.000000 -2.299169 27.995818 9.856079 22.009436 22.610281 0.989260 -33.945889 18.705173 -2.915568 0.000000 0.000000 0.000000 
0.134724 0.777299 0.502388 -0.117017 7.683145 -1.216833 23.180673 2.620611 -41.349901 -10.163836 2.479893 51.150100 0.877464 2.007413 0.205607 0.000000 0.000000 0.000000 -12.742007 -1.677751 -39.706912 -0.171437 0.412680 65.147871 -3.939671 -8.071392 -6.269302 0.000000 0.000000 0.000000 -11.747775 1.706224 74.434708 16.534119 -1.577007 -33.962719 17.014839 25.944819 37.208571 -4.638622 8.983933 -37.512185 0.000000 0.000000 0.000000 -25.171441 -8.119883 -6.698453 -22.518068 -6.983720 -0.937813 -35.970821 -68.915778 22.858193 0.000000 0.000000 0.000000 -0.013219 29.833310 11.404046 24.140583 20.894360 0.519042 -37.271488 18.817091 -3.345141 0.000000 0.000000 0.000000 
0.166569 0.771602 0.524635 -0.348515 6.560762 -3.079330 18.451117 1.344318 -39.670457 -6.079691 -0.028157 55.943589 3.379039 5.091917 -5.476202 0.000000 0.000000 0.000000 -13.640558 -1.747954 -38.495792 -0.767625 1.396226 68.515048 -3.766029 -8.806307 -1.965956 0.000000 0.000000 0.000000 -11.914305 2.396499 75.883935 17.552130 -1.939102 -33.204341 16.304719 25.087822 34.862945 -3.471627 8.145201 -36.798870 0.000000 0.000000 0.000000 -24.342826 -9.989372 -4.598203 -26.217922 -6.909731 -1.246437 -36.918778 -65.930513 22.252302 0.000000 0.000000 0.000000 2.465972 28.689575 12.040992 24.485696 23.362149 0.834557 -35.228875 19.590079 -3.536832 0.000000 0.000000 0.000000 
0.195686 0.779627 0.542680 -0.418314 5.988176 -3.651467 15.648470 0.577184 -38.238185 -4.996744 -0.736609 57.726501 4.084391 6.440260 -6.324137 0.000000 0.000000 0.000000 -14.916179 -2.008210 -37.208393 -0.177525 1.182995 70.096123 -3.910428 -10.028797 1.459454 0.000000 0.000000 0.000000 -11.318859 2.266698 76.588186 20.434316 -2.589122 -32.571565 13.643117 24.679143 33.779309 -3.544453 8.188955 -35.592327 0.000000 0.000000 0.000000 -26.620074 -11.260487 -4.244209 -24.845923 -8.289894 -0.854467 -32.116865 -66.359953 19.804594 0.000000 0.000000 0.000000 4.864339 30.188909 13.756661 22.831318 24.287159 0.660118 -35.324558 17.776572 -3.251692 0.000000 0.000000 0.000000 
0.217136 0.808414 0.557046 -0.432723 4.564050 -3.123433 14.816854 0.531523 -34.684452 -5.375391 0.008188 54.250113 3.257430 5.180660 -4.581544 0.000000 0.000000 0.000000 -16.602879 -2.371907 -37.992750 3.611341 -1.507946 70.282825 -5.156736 -14.129428 9.684650 0.000000 0.000000 0.000000 -8.981509 1.108721 74.141200 19.055192 -2.754969 -30.658664 11.391461 22.324287 32.424690 -2.375536 7.099980 -36.942041 0.000000 0.000000 0.000000 -23.415789 -11.253643 -2.425886 -27.658611 -10.992635 -0.819156 -31.802078 -70.002825 20.670802 0.000000 0.000000 0.000000 4.470762 28.887712 12.859856 24.313979 27.888454 1.518863 -35.115379 17.086559 -3.026228 0.000000 0.000000 0.000000 
0.225862 0.852235 0.570357 0.066561 1.973865 -1.314940 15.162142 0.897439 -31.292251 -7.056028 1.772411 47.878070 1.602191 4.881043 3.871862 0.000000 0.000000 0.000000 -18.842255 -2.725839 -40.008116 9.151744 -5.068076 67.642930 -5.311118 -15.341615 17.251946 0.000000 0.000000 0.000000 -7.404209 1.129154 69.989071 18.753666 -3.166515 -28.307434 11.069642 20.296421 31.943766 -4.199021 7.386186 -38.091988 0.000000 0.000000 0.000000 -23.855565 -10.644941 -2.083059 -28.736180 -11.961648 -0.867945 -34.634319 -71.289898 23.888255 0.000000 0.000000 0.000000 3.356541 27.898876 11.845239 25.364133 31.294432 2.458591 -32.398193 18.505820 -3.213189 0.000000 0.000000 0.000000 
0.220426 0.896426 0.583759 -1.117811 -1.073659 1.320201 16.914973 1.398991 -26.268174 -6.655255 1.945929 38.340096 -0.037440 2.900922 7.285706 0.000000 0.000000 0.000000 -18.375027 -1.966758 -42.394175 14.216151 -7.380214 60.598068 -5.110591 -15.655774 22.087018 0.000000 0.000000 0.000000 -5.518412 0.991955 66.069467 18.739857 -3.246154 -27.690779 9.675692 19.122152 32.040526 -3.519590 6.883117 -37.350359 0.000000 0.000000 0.000000 -25.558930 -9.788727 -2.306580 -26.622540 -11.174646 -1.096379 -37.683470 -72.277472 27.345267 0.000000 0.000000 0.000000 6.240666 27.622682 12.969614 23.709977 32.290012 1.957520 -29.729786 21.856655 -3.855104 0.000000 0.000000 0.000000 
0.203557 0.927732 0.597310 -1.874601 -3.014211 2.736971 18.479051 1.492464 -20.893851 -5.761544 1.548731 30.337378 -1.964550 -0.123660 8.853857 0.000000 0.000000 0.000000 -17.411406 -1.125383 -41.845489 14.695114 -6.694876 56.708839 -4.154001 -14.406850 22.173514 0.000000 0.000000 0.000000 -4.730628 1.109662 62.336971 17.949178 -3.449708 -25.612040 10.334611 17.686025 30.098823 -5.834821 7.269250 -38.443154 0.000000 0.000000 0.000000 -26.568557 -9.425903 -2.072992 -26.585060 -11.209028 -1.092459 -36.666032 -72.617571 27.313201 0.000000 0.000000 0.000000 5.970474 25.516276 11.869812 27.441915 33.079853 2.819685 -27.753234 26.248201 -4.346985 0.000000 0.000000 0.000000 
0.178950 0.939392 0.612514 -2.106356 -5.071130 3.177172 20.257054 1.593714 -16.588700 -5.407269 1.530574 27.568555 -2.494851 -1.640340 7.886607 0.000000 0.000000 0.000000 -15.912410 -0.163677 -39.771964 14.154310 -5.188547 51.081366 -8.648692 -21.250290 23.848481 0.000000 0.000000 0.000000 -4.995777 1.817002 58.696260 20.521662 -4.013527 -25.655252 7.450336 16.829064 30.448251 -3.962119 6.289086 -37.584267 0.000000 0.000000 0.000000 -26.058851 -9.392679 -1.280551 -27.180259 -11.569857 -1.309879 -27.596320 -74.845453 21.591284 0.000000 0.000000 0.000000 8.970816 23.326753 11.857207 28.521634 33.978623 2.838239 -25.076355 29.163129 -4.363460 0.000000 0.000000 0.000000 
0.147127 0.930436 0.631880 -1.781292 -8.764009 2.972286 21.415455 1.384836 -9.779437 -5.698043 1.728736 23.127824 0.134742 2.444963 6.588364 0.000000 0.000000 0.000000 -13.950538 0.981528 -37.077994 12.425651 -3.005722 47.488396 -11.574276 -25.565564 25.333001 0.000000 0.000000 0.000000 -6.275291 3.246047 53.999489 23.076211 -5.752362 -20.752047 3.449817 17.025101 25.129026 -4.767235 6.523795 -34.086015 0.000000 0.000000 0.000000 -28.142215 -9.450569 -1.214972 -25.455192 -9.024670 -1.480005 -18.967436 -75.777937 15.601454 0.000000 0.000000 0.000000 14.920345 22.971972 13.694767 27.336876 29.996784 1.399977 -26.396974 33.790471 -5.607016 0.000000 0.000000 0.000000 
